<svg width="191" height="58" viewBox="0 0 191 58" fill="none" xmlns="http://www.w3.org/2000/svg">
<path fill-rule="evenodd" clip-rule="evenodd" d="M34.5942 50.7856C35.3308 50.7856 35.6979 50.4185 35.6979 49.3148L36.4344 45.6321C36.8015 44.5296 36.8015 44.1613 36.0662 44.1613H35.6979L36.0662 43.7942H38.6417V44.1613C37.9064 44.1613 37.5381 44.1613 37.5381 45.6321L36.8015 49.6819C36.4344 50.7844 36.8015 50.7844 37.5381 50.7844C38.2746 50.7844 38.6417 50.4173 39.0112 50.4173C39.3783 50.0502 39.3783 49.6819 39.7465 49.3148H40.1148C39.7465 49.6819 39.3783 50.4173 39.3783 50.7856H34.5942ZM44.1623 49.6831C43.0587 50.7856 42.3221 51.1538 41.955 51.1538C41.5867 51.1538 40.8502 50.7867 40.8502 49.316C40.8502 48.5783 41.2185 47.4758 41.955 46.7381C42.6904 46.371 43.4269 46.0027 43.7952 46.0027C44.1623 46.0027 44.5306 46.3698 44.5306 47.1052C44.5306 47.8429 42.6904 48.5783 41.5856 48.9454V49.3148C41.5856 49.6819 41.9538 50.4173 42.3221 50.4173C43.0587 50.4185 43.4258 50.4185 44.1623 49.6831ZM43.7952 47.1052C43.7952 46.7381 43.4269 46.3698 43.0587 46.3698L42.6904 46.7369C42.6904 46.7369 41.955 47.4746 41.5856 48.5771C43.4258 48.21 43.7952 47.8429 43.7952 47.1052ZM54.8352 52.6258C54.4681 52.6258 53.7315 52.6258 53.3633 52.2586C53.3633 52.2586 52.2596 51.8915 51.1548 51.1538C49.3158 50.7867 48.211 49.6831 48.211 48.2112C48.211 45.6333 50.0512 43.7954 52.2596 43.7954C54.0986 43.7954 55.2035 44.8979 55.2035 46.7381C55.2035 48.9454 54.0986 50.4185 52.2596 51.1538C52.995 51.5233 53.7304 51.8904 54.8352 52.6258ZM51.8902 50.7856C53.3621 50.4185 54.4669 48.21 54.4669 46.7381C54.4669 45.2662 53.7304 44.1625 52.2584 44.1625C50.4183 44.1625 49.3146 46.3698 49.3146 48.21C49.3146 49.3148 49.6829 50.4173 50.7865 50.7856H51.8902ZM61.0911 46.0027L60.3546 49.6831C59.9863 50.4185 59.9863 50.4185 60.3546 50.4185C60.3546 50.4185 60.7217 50.0514 61.0911 50.0514C60.7229 50.4185 59.618 51.1538 59.618 51.1538C59.2509 51.1538 59.2509 50.7867 59.2509 50.0514L59.618 48.9465C59.2509 49.316 58.5144 50.0514 57.7779 50.7867C57.7779 50.7867 57.4107 51.1538 57.0425 51.1538C57.0425 51.1538 56.6742 50.7867 56.6742 49.6831L57.4108 47.4758V46.7381C57.0425 46.7381 56.6742 47.1052 56.3071 47.4758V47.1063C57.0425 46.7392 57.779 46.0039 58.1461 46.0039V46.7392L57.4108 49.3171C57.4108 50.0525 57.4108 50.4196 57.7779 50.4196C58.1461 50.4196 58.5144 50.0525 58.8815 49.3171C59.2498 48.9477 59.6181 48.2123 59.9863 47.8441C59.9863 47.8441 59.9863 47.1063 60.3546 46.371L61.0911 46.0027ZM66.2434 47.4746C66.2434 48.5771 65.8763 49.6819 65.1398 50.4173C64.7715 50.7844 64.0361 51.1527 63.2996 51.1527C62.5631 51.1527 62.1959 50.0502 62.1959 49.3148C62.1959 47.8417 62.9313 47.1052 63.6679 46.3698C64.0361 46.3698 64.4044 46.0027 64.7727 46.0027C65.8752 46.0027 66.2434 46.7381 66.2434 47.4746ZM64.4032 46.3698C64.4032 46.3698 64.0361 46.3698 64.0361 46.7369C63.6679 46.7369 62.9313 47.4746 62.9313 49.3148C62.9313 50.0502 63.2996 50.7856 64.0361 50.7856C64.7715 50.4185 65.5081 49.3148 65.5081 47.8429C65.5069 46.7381 65.1398 46.3698 64.4032 46.3698ZM67.3471 46.7381L67.7154 46.371H68.4507L68.819 45.6333L69.5544 44.8979L69.1861 46.371H70.658L70.2898 46.7381H69.1861L68.4496 49.6831V50.4185C68.8178 50.4185 69.1861 50.0514 69.5544 49.6831C69.1861 50.0502 68.4496 51.1538 68.0825 51.1538C67.7142 51.1538 67.3459 50.7867 67.7142 49.6831L68.4496 46.7381H67.3471ZM73.2348 50.0502C72.8677 50.4173 71.7628 51.1527 71.3957 51.1527C71.0286 51.1527 71.0275 50.7856 71.0275 50.4173L71.764 47.4746C72.1311 47.1052 72.1311 46.7369 71.764 46.7369C71.764 46.7369 71.3957 47.104 71.0275 47.4746V47.1052C71.3957 46.7381 72.4994 46.0027 72.8677 46.0027V47.1052L72.1311 50.0502V50.4173L72.8677 49.6819L73.2348 50.0502ZM72.1311 44.1625C72.1311 43.7954 72.4994 43.4248 72.8677 43.4248C73.2348 43.4248 73.2348 43.7942 73.2348 44.1625L72.8677 44.5296C72.4994 44.5296 72.1311 44.5296 72.1311 44.1625ZM76.9163 43.7942C77.6517 43.4248 78.3882 43.4248 78.7553 43.4248V43.7942C78.3882 45.6321 78.0188 47.8417 77.2834 49.6819V50.4173C77.6517 50.4173 78.0188 50.0502 78.3882 50.0502C78.02 50.4173 76.9163 51.1527 76.9163 51.1527C76.548 51.1527 76.548 50.7856 76.548 50.0502L76.9163 48.9454C76.548 49.6831 75.8115 50.0502 75.4432 50.4185C75.075 50.7867 74.7079 51.1538 74.3396 51.1538C73.9713 51.1538 73.6042 50.7867 73.6042 50.0514C73.6042 48.5783 74.3396 47.4758 75.0761 47.1063C75.4444 46.7392 76.1798 46.0039 76.9163 46.0039H77.2834L77.6517 44.5308C78.0188 43.7954 78.0188 43.7954 77.6517 43.7954H76.9163V43.7942ZM75.8115 46.7381C75.4432 46.7381 75.075 47.1052 75.075 47.8429C74.7079 48.21 74.7079 48.9454 74.7079 49.6831V50.4185C75.075 50.4185 75.4432 50.0514 75.8115 49.6831L76.9163 48.5783C76.9163 48.2112 77.2834 47.1052 77.2834 46.7381C77.2834 46.7381 76.9163 46.371 76.548 46.371C76.1798 46.3698 75.8115 46.7381 75.8115 46.7381ZM81.3321 50.0502C80.9638 50.4173 79.8602 51.1527 79.4919 51.1527C79.4919 51.1527 79.1236 50.7856 79.4919 50.4173L80.2273 47.4746V46.7369C79.8602 46.7369 79.4919 47.104 79.1236 47.4746V47.1052C79.4919 46.7381 80.5955 46.0027 80.9626 46.0027V47.1052L80.2273 50.0502V50.4173L80.9626 49.6819L81.3321 50.0502ZM80.2273 44.1625C80.2273 43.7954 80.5955 43.4248 80.9626 43.4248C81.3309 43.4248 81.3309 43.7942 81.3309 44.1625C81.3309 44.1625 81.3309 44.5296 80.9626 44.5296C80.5955 44.5296 80.2273 44.5296 80.2273 44.1625ZM85.3807 49.6831C84.2771 50.7856 83.5405 51.1538 83.1734 51.1538C82.4369 51.1538 81.7003 50.7867 81.7003 49.316C81.7003 48.5783 82.4369 47.4758 83.1734 46.7381C83.5405 46.371 84.2771 46.0027 84.6453 46.0027C85.3819 46.0027 85.749 46.3698 85.749 47.1052C85.749 47.8429 83.91 48.5783 82.8052 48.9454V49.3148C82.8052 49.6819 82.8052 50.4173 83.5405 50.4173C83.9088 50.4173 84.6442 50.4173 85.0125 49.6819H85.3807V49.6831ZM84.6442 47.1052C84.6442 46.7381 84.6442 46.3698 84.2771 46.3698C83.9088 46.3698 83.9088 46.7369 83.9088 46.7369C83.5405 46.7369 82.8052 47.4746 82.8052 48.5771C84.2759 48.21 84.6442 47.8429 84.6442 47.1052ZM86.1161 51.1527C86.1161 50.4173 86.4832 50.0502 86.4832 49.3148L86.8515 47.4746C86.8515 47.1052 87.2198 46.7369 86.8515 46.7369C86.8515 46.7369 86.4832 47.104 86.1161 47.4746V47.1052C86.4832 46.7381 87.588 46.0027 87.588 46.0027C87.9563 46.0027 87.9563 46.3698 87.588 47.1052V48.21C88.3246 47.1052 89.0611 46.3698 89.7965 46.3698C89.7965 46.0027 90.1648 46.0027 90.1648 46.0027C90.5319 46.0027 90.9013 46.3698 90.5319 47.4758C90.1648 48.2112 90.1648 48.9465 89.7965 49.6831V50.4185C89.7965 50.4185 90.5319 50.0514 90.5319 49.6831L90.9001 50.0502C90.1636 50.4173 89.4282 51.1527 89.06 51.1527V50.4173L89.7953 47.4746C89.7953 47.1052 89.7953 46.7369 89.4282 46.7369C89.06 46.7369 87.588 48.21 87.2198 48.5771C87.2198 48.9442 86.8515 50.0502 86.8515 50.7844L86.1161 51.1527ZM98.2609 43.7942C98.9963 43.4248 99.734 43.4248 100.101 43.4248V43.7942C99.734 45.6321 98.9963 47.8417 98.628 49.6819V50.4173C98.9951 50.4173 99.3657 50.0502 99.7328 50.0502C98.9951 50.4173 98.2597 51.1527 98.2597 51.1527C97.8926 51.1527 97.8926 50.7856 97.8926 50.0502L98.2597 48.9454C97.5244 49.6831 97.1549 50.0502 96.7867 50.4185C96.4184 50.7867 96.0513 51.1538 95.683 51.1538C95.3147 51.1538 94.9465 50.7867 94.9465 50.0514C94.9465 48.5783 95.683 47.4758 96.4184 47.1063C96.7855 46.7392 97.5232 46.0039 98.2586 46.0039H98.6257L98.9928 44.5308C99.3622 43.7954 99.3622 43.7954 98.9928 43.7954H98.2609V43.7942ZM97.1561 46.7381C96.789 46.7381 96.4207 47.1052 96.4207 47.8429C96.0524 48.21 96.0524 48.9454 96.0524 49.6831V50.4185C96.4207 50.4185 96.7878 50.0514 97.1561 49.6831C97.5255 49.316 97.8938 48.9454 98.2609 48.5783C98.2609 48.2112 98.628 47.1052 98.628 46.7381C98.628 46.7381 98.2609 46.371 97.8926 46.371C97.5244 46.371 97.1561 46.7381 97.1561 46.7381ZM104.149 49.6831C103.044 50.7856 102.308 51.1538 101.941 51.1538C101.574 51.1538 100.836 50.7867 100.836 49.316C100.836 48.5783 101.206 47.4758 101.941 46.7381C102.308 46.371 103.044 46.0027 103.414 46.0027C104.15 46.0027 104.517 46.3698 104.517 47.1052C104.517 47.8429 102.677 48.5783 101.574 48.9454V49.3148C101.574 49.6819 101.574 50.4173 102.31 50.4173C102.677 50.4185 103.413 50.4185 104.149 49.6831ZM103.781 47.1052C103.781 46.7381 103.414 46.3698 103.044 46.3698L102.677 46.7369C102.31 46.7369 101.941 47.4746 101.574 48.5771C103.044 48.21 103.781 47.8429 103.781 47.1052ZM109.302 43.7942C110.405 43.4248 110.775 43.4248 111.142 43.4248V43.7942C110.775 46.0015 110.037 47.8417 109.669 50.0502V50.4173C110.036 50.4173 110.405 50.0502 110.774 49.6819C110.405 50.4173 109.301 51.1527 109.301 51.1527C108.934 51.1527 108.934 50.7856 108.934 50.0502L110.036 44.5296C110.403 43.7942 110.403 43.7942 110.036 43.7942H109.302ZM113.718 44.5296C113.718 45.265 112.982 45.6321 112.245 45.6321C112.612 45.265 113.35 45.265 113.35 44.5296C113.35 44.1625 112.982 43.7942 112.612 43.7942C112.612 43.4248 112.981 43.4248 112.981 43.4248C113.35 43.4248 114.085 43.7942 113.718 44.5296ZM116.663 47.4746L116.293 49.6819C115.926 50.7844 116.293 50.7844 117.031 50.7844C118.134 50.7844 118.504 50.4173 118.871 50.4173C118.871 50.0502 119.238 49.6819 119.607 49.3148C119.607 49.6819 119.24 50.4173 119.24 50.7856H114.086C115.191 50.7856 115.191 50.4185 115.559 49.3148L116.295 45.6321C116.295 44.5296 116.295 44.1613 115.559 44.1613V43.7942H119.975V45.6321H119.608V44.5296C119.241 44.1625 118.872 44.1625 118.135 44.1625H117.768C117.032 44.1625 117.032 44.1625 117.032 44.5296L116.665 47.1052H117.768C118.505 47.1052 118.872 47.1052 119.241 46.3698L118.874 48.21H118.506C118.506 47.4746 118.507 47.4746 117.769 47.4746H116.663ZM124.021 50.0502C123.286 50.7856 122.181 51.1527 121.814 51.1527C121.079 51.1527 120.711 50.4173 120.711 49.6819C120.711 48.5771 121.079 47.4746 121.814 46.7369C122.181 46.3698 122.919 46.0015 123.654 46.0015C124.021 46.0015 124.392 46.3686 124.392 46.7369L124.022 47.104H123.655C123.655 46.7369 123.288 46.7369 122.92 46.7369C122.552 46.7369 122.182 46.7369 122.182 47.104C121.815 47.8417 121.447 48.5771 121.447 49.3136C121.447 50.049 121.814 50.4161 122.182 50.4161C122.92 50.4161 123.655 50.049 123.655 49.6808L124.021 50.0502ZM128.806 47.4746C128.806 48.5771 128.439 49.6819 127.702 50.4173C127.335 50.7844 126.599 51.1527 126.231 51.1527C125.126 51.1527 124.758 50.0502 124.758 49.3148C124.758 47.8417 125.493 47.1052 126.231 46.3698C126.966 46.3698 127.333 46.0027 127.333 46.0027C128.438 46.0027 128.806 46.7381 128.806 47.4746ZM127.333 46.3698C126.966 46.3698 126.966 46.3698 126.966 46.7369C126.599 46.7369 125.493 47.4746 125.493 49.3148C125.493 50.0502 125.86 50.7856 126.598 50.7856H126.965C127.332 50.4185 128.07 49.3148 128.07 47.8429C128.071 46.7381 127.702 46.3698 127.333 46.3698ZM129.909 51.1527C129.909 50.4173 129.909 50.0502 130.278 49.3148L130.645 47.4746V46.7369C130.645 46.7369 129.908 47.104 129.908 47.4746L129.541 47.1052C130.278 46.7381 131.014 46.0027 131.381 46.0027C131.748 46.0027 131.381 46.3698 131.381 47.1052L131.014 48.21C132.119 47.1052 132.854 46.3698 133.221 46.3698C133.588 46.0027 133.588 46.0027 133.959 46.0027C133.959 46.0027 134.326 46.3698 133.959 47.4758C133.959 48.2112 133.589 48.9465 133.589 49.6831V50.4185L134.327 49.6831V50.0502C133.96 50.4173 132.854 51.1527 132.854 51.1527C132.487 51.1527 132.487 50.7856 132.854 50.4173L133.221 47.4746C133.588 47.1052 133.588 46.7369 133.221 46.7369C132.486 46.7369 131.381 48.21 131.014 48.5771C131.014 48.9442 130.647 50.0502 130.647 50.7844L129.909 51.1527ZM139.11 47.4746C139.11 48.5771 138.743 49.6819 138.007 50.4173C137.64 50.7844 136.903 51.1527 136.534 51.1527C135.43 51.1527 135.061 50.0502 135.061 49.3148C135.061 47.8417 136.166 47.1052 136.901 46.3698C137.269 46.3698 137.639 46.0027 138.006 46.0027C138.743 46.0027 139.11 46.7381 139.11 47.4746ZM137.639 46.3698C137.27 46.3698 137.27 46.3698 137.27 46.7369C136.903 46.7369 136.167 47.4746 136.167 49.3148C136.167 50.0502 136.167 50.7856 136.903 50.7856H137.27C137.639 50.4185 138.375 49.3148 138.375 47.8429C138.375 46.7381 138.007 46.3698 137.639 46.3698ZM140.215 51.1527C140.215 50.4173 140.215 50.0502 140.582 49.3148L140.949 47.4746V46.7369L140.214 47.4746V47.1052C140.581 46.7381 141.316 46.0027 141.687 46.0027C142.054 46.0027 142.054 46.3698 141.687 47.1052V48.21C142.422 47.1052 143.16 46.3698 143.527 46.3698C143.894 46.3698 144.262 46.0027 144.262 46.0027C144.262 46.0027 144.629 46.3698 144.629 47.1052L144.262 48.21C144.998 47.1052 146.102 46.3698 146.47 46.3698L146.837 46.0027C147.206 46.0027 147.574 46.3698 147.206 47.4758C147.206 48.2112 146.837 48.9465 146.468 49.6831V50.4185C146.835 50.4185 147.206 50.0514 147.206 49.6831L147.573 50.0502C146.835 50.4173 146.1 51.1527 146.1 51.1527C145.733 51.1527 145.733 50.7856 145.733 50.0502L146.468 47.4746C146.468 47.1052 146.468 46.7369 146.101 46.7369C145.734 46.7369 144.628 48.21 144.261 48.5771C143.894 49.3148 143.894 50.0502 143.894 50.7844L142.789 51.1515C143.159 50.4161 143.159 50.049 143.159 49.3136L143.526 47.4735C143.893 47.104 143.893 46.7358 143.526 46.7358C143.159 46.7358 141.685 48.2088 141.316 48.5759C141.316 48.9431 140.949 50.049 140.949 50.7832L140.215 51.1527ZM150.518 50.0502C150.151 50.4173 149.047 51.1527 148.678 51.1527C148.678 51.1527 148.311 50.7856 148.678 50.4173L149.416 47.4746V46.7369C149.049 46.7369 148.678 47.104 148.311 47.4746V47.1052C149.049 46.7381 149.784 46.0027 150.151 46.0027C150.518 46.0027 150.151 46.3698 150.151 47.1052L149.416 50.0502V50.4173C149.416 50.4173 150.151 50.0502 150.518 49.6819V50.0502ZM149.784 44.1625C149.784 43.7954 149.784 43.4248 150.151 43.4248C150.518 43.4248 150.518 43.7942 150.518 44.1625C150.518 44.1625 150.518 44.5296 150.151 44.5296C149.784 44.5296 149.784 44.5296 149.784 44.1625ZM154.567 49.6831C153.464 50.7856 152.729 51.1538 152.36 51.1538C151.992 51.1538 151.257 50.7867 151.257 49.316C151.257 48.5783 151.624 47.4758 152.36 46.7381C152.729 46.371 153.464 46.0027 153.833 46.0027C154.568 46.0027 154.937 46.3698 154.937 47.1052C154.937 47.8429 153.097 48.5783 151.992 48.9454V49.3148C151.992 49.6819 151.992 50.4173 152.73 50.4173C153.096 50.4185 153.831 50.4185 154.567 49.6831ZM154.199 47.1052C154.199 46.7381 153.831 46.3698 153.463 46.3698L153.096 46.7369C152.729 46.7369 152.358 47.4746 151.991 48.5771C153.463 48.21 154.199 47.8429 154.199 47.1052ZM34.9625 57.0438H157.512V53.7306H34.9625V57.0438Z" fill="black"/>
<path fill-rule="evenodd" clip-rule="evenodd" d="M48.578 34.593C43.794 40.1136 39.01 41.2161 36.065 41.2161C32.7528 41.2161 28.7054 39.3759 28.3371 32.7528C27.9688 27.5994 29.809 21.7117 33.8565 18.3996C36.065 16.5594 39.3771 14.7192 43.0575 14.7192C47.1049 14.7192 49.3134 16.9277 49.3134 19.5032C49.6817 25.0238 40.4807 28.7042 34.9613 30.5444V31.2798C35.3296 33.8553 36.4332 36.8003 39.7453 36.8003C41.9538 36.8003 44.8976 35.6955 47.4732 33.12L48.578 34.593ZM39.01 18.0325C37.5369 19.1373 35.6967 21.7129 35.3296 28.3371C40.849 25.7604 43.0575 23.1848 42.6892 20.2409C42.6892 18.0325 41.2173 17.2971 40.4807 17.2971C40.1148 17.2959 39.3782 17.6642 39.01 18.0325ZM55.2023 41.2173C52.9938 41.2173 48.9463 39.7465 48.578 37.5369C48.578 36.0661 49.3146 34.5942 50.05 34.2259C51.1536 33.4882 51.8901 33.4882 52.6267 34.2259C54.834 36.4332 57.0424 37.5369 58.5144 37.5369C59.9863 37.5369 61.4582 36.4344 61.0911 34.9613C61.0911 33.8565 60.3546 32.754 57.4107 30.9138C54.834 29.4407 51.523 27.9688 51.1536 24.2884C51.1536 22.4494 51.1536 20.2409 53.7303 17.6642C55.9376 15.824 58.5144 14.7192 60.7228 14.7192C63.6667 14.7192 66.2434 16.1923 66.2434 18.0313C66.2434 19.1361 65.8763 19.8715 65.1398 20.608C64.0361 21.3434 63.2996 21.3434 62.9313 20.608C61.8276 19.5032 59.9874 18.3996 58.1473 18.3996C56.6753 18.3996 55.5717 19.1361 55.5717 20.608C55.9388 22.4482 57.779 23.5519 59.6192 24.6555C62.9313 26.1275 65.8763 28.3359 65.8763 31.2798C66.2434 36.4332 61.0911 41.2173 55.2023 41.2173ZM78.3882 11.7754C79.1236 5.5194 78.7553 4.78287 74.3396 4.41576L74.7078 2.57557H101.206C100.836 4.41576 100.836 8.83152 100.836 11.7754L98.6291 12.1436C98.262 9.19863 97.8938 7.72671 97.1561 6.62306C96.4207 5.88652 94.9488 5.51825 90.9013 5.51825H89.0611C86.8526 5.51825 86.4843 5.51825 86.4843 7.35844L85.0124 19.1361H88.6928C93.8451 19.1361 94.2134 19.1361 95.317 14.7192H97.1561L95.6853 27.2334H93.8451C93.8451 22.4494 93.8451 22.4494 88.6928 22.4494H84.6442L83.5405 32.3869C83.1734 36.8027 83.5405 37.9052 88.6928 37.9052C91.6367 37.9052 94.2134 37.538 95.317 36.0673C96.4207 34.9625 97.8938 33.1223 98.9963 30.1796L101.206 30.915C100.468 32.7552 98.9962 38.2757 98.2609 40.483H70.2909L70.6592 38.6429C75.0749 38.2757 75.4432 37.9052 76.1786 31.6492L78.3882 11.7754ZM121.813 35.3284C118.502 39.0088 113.717 41.2161 110.405 41.2161C105.622 41.2161 103.044 38.2734 102.677 32.7528C102.31 28.3359 103.781 22.4482 107.462 18.7679C109.669 16.5594 113.718 14.7192 117.03 14.7192C119.605 14.7192 122.55 16.1923 122.55 18.0313C122.918 18.7679 122.181 19.8715 121.077 20.608C119.973 21.7117 118.87 21.3434 118.502 20.9763C116.292 18.3996 115.189 17.6642 114.452 17.6642C113.35 17.6642 112.245 18.3996 111.509 20.608C110.036 23.5519 109.302 27.9676 109.669 31.2809C110.036 35.3284 111.509 36.8015 113.717 36.8015C116.662 36.8015 119.237 34.5942 120.71 33.4882L121.813 35.3284ZM122.919 41.2173L124.021 32.3857L126.966 6.62422C127.333 4.41576 127.333 4.04748 125.126 4.04748H122.919V2.57557C127.335 1.47192 133.222 0 133.59 0C134.328 0 134.328 1.10365 134.328 2.94384L131.75 23.9213C134.695 19.5044 138.009 17.2971 139.849 16.1934C141.689 15.0898 142.791 14.7204 143.896 14.7204C145.369 14.7204 147.944 15.4569 147.209 20.2409L145 34.5942C145 35.6967 145 36.4344 145.369 36.4344C145.736 36.4344 147.577 35.3296 149.05 34.2271L149.785 35.6978C146.84 39.0111 142.057 41.2184 140.584 41.2184C138.744 41.2184 137.641 40.1159 138.377 36.0673L139.85 22.8177C140.217 20.6104 140.585 19.5056 139.112 19.5056C138.01 19.5056 133.592 23.9225 131.384 28.3382C131.017 30.1796 130.282 36.4356 130.282 39.7477L122.919 41.2173ZM150.151 32.0186C149.784 24.2884 153.464 19.1373 157.145 16.9288C159.72 15.4569 162.296 14.7204 164.505 14.7204C170.026 14.7204 173.337 18.4007 173.704 23.553C174.071 28.3371 172.233 33.8565 168.921 37.1698C166.346 39.3771 162.665 41.2173 159.72 41.2173C153.096 41.2173 150.518 36.0661 150.151 32.0186ZM162.664 17.2959C162.295 17.2959 161.926 17.2959 161.191 17.6642C159.718 18.3996 156.773 22.8165 157.511 31.648C157.878 36.0661 159.718 38.6417 161.558 38.6417C162.293 38.6417 162.663 38.6417 162.663 38.2746C164.503 37.5369 167.446 31.2809 166.71 23.553C166.344 19.1361 164.504 17.2959 162.664 17.2959ZM179.961 41.2173C177.383 41.2173 173.336 39.7465 173.336 37.5369C172.969 36.0661 174.071 34.5942 174.809 34.2259C175.914 33.4882 176.649 33.4882 177.384 34.2259C179.225 36.4332 181.803 37.5369 183.272 37.5369C184.377 37.5369 185.85 36.4344 185.85 34.9613C185.85 33.8565 185.112 32.754 182.17 30.9138C179.592 29.4407 175.914 27.9688 175.914 24.2884C175.544 22.4494 175.914 20.2409 178.489 17.6642C180.697 15.824 182.905 14.7192 185.112 14.7192C188.057 14.7192 190.633 16.1923 191 18.0313C191 19.1361 190.265 19.8715 189.529 20.608C188.424 21.3434 187.689 21.3434 187.322 20.608C186.217 19.5032 184.377 18.3996 182.904 18.3996C181.431 18.3996 179.961 19.1361 180.328 20.608C180.328 22.4482 182.536 23.5519 184.376 24.6555C187.689 26.1275 190.263 28.3359 190.632 31.2798C191 36.4332 185.482 41.2173 179.961 41.2173ZM21.3446 3.31211L20.9775 5.15114C16.5606 5.51941 16.1935 5.88768 15.4569 12.1448L13.2496 32.3857C12.8813 33.8565 12.8813 34.593 13.2496 35.6967C13.2496 36.0661 13.6167 36.8015 13.985 37.1698C14.7204 37.5369 14.7204 37.9052 16.1935 37.9052C18.4008 37.9052 20.9775 37.538 22.0811 36.0673C23.1848 34.9625 24.6579 33.1223 25.7615 30.5467L27.6017 30.9138C27.2334 33.1211 25.7615 38.2746 25.025 40.4819H0L0.36827 38.6417C4.78403 38.2746 5.1523 37.904 5.88768 31.648L8.09614 12.1436C8.83152 5.88652 8.46441 5.51825 4.04749 5.14998L4.41576 3.31095H21.3446V3.31211Z" fill="black"/>
</svg>
