<svg width="300" height="56" viewBox="0 0 300 56" fill="none" xmlns="http://www.w3.org/2000/svg">
<path d="M94.1977 32.777C94.5385 32.2231 94.2829 31.5841 93.8143 31.2433L91.7268 29.6245C91.0026 29.0706 90.4062 29.3262 89.9376 29.8801C88.5743 31.5415 87.2537 32.5214 85.0384 32.5214C81.8433 32.5214 79.5428 29.9653 79.5428 26.7702C79.5428 23.575 81.8433 21.019 85.0384 21.019C87.2537 21.019 88.5743 21.9988 89.9376 23.6602C90.4062 24.2141 91.0026 24.4697 91.7268 23.9159L93.8143 22.297C94.2829 21.9562 94.5385 21.3172 94.1977 20.7633C92.4937 17.909 89.2133 15.9068 84.9532 15.9068C78.8186 15.9068 74.0046 20.6355 74.0046 26.7702C74.0046 32.9048 78.8186 37.6335 84.9532 37.6335C89.2133 37.6335 92.4937 35.6313 94.1977 32.777ZM95.8868 26.8128C95.8868 32.9048 100.786 37.6335 106.921 37.6335C113.055 37.6335 117.954 32.9048 117.954 26.8128C117.954 20.6355 113.055 15.9068 106.921 15.9068C100.786 15.9068 95.8868 20.6355 95.8868 26.8128ZM101.425 26.7702C101.425 23.575 103.768 21.019 106.921 21.019C110.116 21.019 112.416 23.575 112.416 26.7702C112.416 29.9653 110.116 32.5214 106.921 32.5214C103.768 32.5214 101.425 29.9653 101.425 26.7702ZM126.494 25.9181C126.494 23.149 128.113 20.9764 131.138 20.9764C134.162 20.9764 135.525 23.149 135.525 25.9181V36.2277C135.525 36.6963 135.951 37.0371 136.42 37.0371H140.126C140.595 37.0371 141.021 36.6963 141.021 36.2277V25.9181C141.021 23.149 142.597 20.9764 145.622 20.9764C148.647 20.9764 150.01 23.149 150.01 25.9181V36.2277C150.01 36.6963 150.436 37.0371 150.905 37.0371H154.611C155.08 37.0371 155.506 36.6963 155.506 36.2277V24.5975C155.506 20.1243 152.694 15.9068 146.73 15.9068C144.046 15.9068 141.362 16.9292 139.445 19.5279C138.295 17.3552 135.951 15.9068 132.884 15.9068C130.115 15.9068 127.687 17.2274 126.494 18.9315V17.3126C126.494 16.844 126.068 16.5032 125.599 16.5032H121.85C121.382 16.5032 120.998 16.8866 120.998 17.3978V36.1851C120.998 36.6537 121.382 37.0371 121.85 37.0371H125.599C126.068 37.0371 126.494 36.6963 126.494 36.2277V25.9181ZM164.851 26.7702C164.851 23.575 167.237 21.019 170.389 21.019C173.584 21.019 175.885 23.575 175.885 26.7702C175.885 30.0079 173.584 32.564 170.389 32.564C167.237 32.564 164.851 30.0079 164.851 26.7702ZM164.808 17.3978C164.808 16.8866 164.425 16.5032 163.956 16.5032H160.25C159.781 16.5032 159.398 16.8866 159.398 17.3978V45.3444C159.398 45.813 159.781 46.1964 160.25 46.1964H164.041C164.51 46.1964 164.894 45.813 164.894 45.3444V34.7366C166.129 36.6111 168.685 37.6335 171.199 37.6335C176.652 37.6335 181.423 33.3734 181.423 26.7276C181.423 20.1243 176.694 15.9068 171.284 15.9068C168.344 15.9068 166.001 17.1848 164.808 19.0167V17.3978ZM186.068 30.9877C186.068 35.5887 189.518 37.4631 192.884 37.4631C195.27 37.4631 197.357 36.7389 198.678 35.4183C199.104 34.9922 199.146 34.5236 198.806 34.0124L197.528 31.9249C197.144 31.3711 196.505 31.3711 195.866 31.7545C195.142 32.2231 194.418 32.3935 193.906 32.3935C192.927 32.3935 191.563 31.7971 191.563 29.7523V21.1042H197.528C197.996 21.1042 198.422 20.6781 198.422 20.2095V17.3978C198.422 16.8866 197.996 16.5032 197.528 16.5032H191.563V10.7946C191.563 10.2834 191.18 9.89997 190.711 9.89997H186.962C186.451 9.89997 186.068 10.2834 186.068 10.7946V16.5032H183.256C182.787 16.5032 182.404 16.8866 182.404 17.3978V20.2095C182.404 20.6781 182.787 21.1042 183.256 21.1042H186.068V30.9877ZM205.35 26.7702C205.35 23.575 207.736 21.019 210.888 21.019C214.084 21.019 216.384 23.575 216.384 26.7702C216.384 30.0079 214.084 32.564 210.888 32.564C207.736 32.564 205.35 30.0079 205.35 26.7702ZM199.812 26.7276C199.812 33.3734 204.754 37.6335 210.079 37.6335C212.976 37.6335 215.319 36.3555 216.384 34.5236V36.1851C216.384 36.6537 216.767 37.0371 217.236 37.0371H220.985C221.454 37.0371 221.837 36.6537 221.837 36.1851V17.3978C221.837 16.8866 221.454 16.5032 220.985 16.5032H217.236C216.767 16.5032 216.384 16.8866 216.384 17.3978V19.0167C215.362 17.1848 213.019 15.9068 210.122 15.9068C204.711 15.9068 199.812 20.1243 199.812 26.7276ZM233.93 15.9068C228.648 15.9068 225.239 18.7611 225.239 22.4674C225.239 25.8329 227.412 27.8778 230.778 28.5594L234.058 29.241C236.231 29.7097 237.338 30.0931 237.338 31.2859C237.338 32.3509 236.273 33.3308 234.058 33.3308C231.885 33.3308 230.181 32.3935 228.818 31.2007C228.307 30.7321 227.71 30.4339 226.901 31.0729L225.325 32.3509C224.473 33.0326 224.387 34.0124 225.964 35.2052C227.625 36.4407 230.224 37.6335 233.802 37.6335C239.255 37.6335 242.962 34.7366 242.962 30.7747C242.962 27.0684 240.32 25.3217 236.699 24.6401L233.334 24.0011C231.459 23.6602 230.735 23.0212 230.735 22.0414C230.735 21.0616 231.928 20.2095 233.802 20.2095C235.634 20.2095 237.338 20.9764 238.659 21.9562C239.468 22.4248 240.107 22.3822 240.576 21.8284L241.939 20.2095C242.408 19.6557 242.536 19.0167 241.897 18.5055C240.576 17.3552 237.85 15.9068 233.93 15.9068ZM247.599 30.9877C247.599 35.5887 251.049 37.4631 254.415 37.4631C256.801 37.4631 258.888 36.7389 260.209 35.4183C260.635 34.9922 260.677 34.5236 260.336 34.0124L259.058 31.9249C258.675 31.3711 258.036 31.3711 257.397 31.7545C256.673 32.2231 255.948 32.3935 255.437 32.3935C254.457 32.3935 253.094 31.7971 253.094 29.7523V21.1042H259.058C259.527 21.1042 259.953 20.6781 259.953 20.2095V17.3978C259.953 16.8866 259.527 16.5032 259.058 16.5032H253.094V10.7946C253.094 10.2834 252.711 9.89997 252.242 9.89997H248.493C247.982 9.89997 247.599 10.2834 247.599 10.7946V16.5032H244.787C244.318 16.5032 243.935 16.8866 243.935 17.3978V20.2095C243.935 20.6781 244.318 21.1042 244.787 21.1042H247.599V30.9877ZM266.881 26.7702C266.881 23.575 269.267 21.019 272.419 21.019C275.614 21.019 277.915 23.575 277.915 26.7702C277.915 30.0079 275.614 32.564 272.419 32.564C269.267 32.564 266.881 30.0079 266.881 26.7702ZM261.343 26.7276C261.343 33.3734 266.285 37.6335 271.61 37.6335C274.507 37.6335 276.85 36.3555 277.915 34.5236V36.1851C277.915 36.6537 278.298 37.0371 278.767 37.0371H282.516C282.984 37.0371 283.368 36.6537 283.368 36.1851V17.3978C283.368 16.8866 282.984 16.5032 282.516 16.5032H278.767C278.298 16.5032 277.915 16.8866 277.915 17.3978V19.0167C276.892 17.1848 274.549 15.9068 271.652 15.9068C266.242 15.9068 261.343 20.1243 261.343 26.7276ZM297.719 16.2476C295.546 16.2476 293.757 17.4404 292.692 19.2723V17.3126C292.692 16.844 292.309 16.5032 291.84 16.5032H288.304C287.835 16.5032 287.452 16.8866 287.452 17.3978V36.1851C287.452 36.6537 287.835 37.0371 288.304 37.0371H292.053C292.522 37.0371 292.948 36.6963 292.948 36.2277V26.9832C292.948 23.4046 294.524 22.0414 297.25 22.0414H298.273C298.614 22.0414 299.295 21.8284 299.295 20.9764V17.3126C299.295 16.4606 298.784 16.2476 298.315 16.2476H297.719Z" fill="white"/>
<path d="M20.4539 27.8073C20.4511 28.7608 20.6364 29.7054 20.9993 30.5871C21.3623 31.4688 21.8956 32.2702 22.5688 32.9454C23.242 33.6206 24.0419 34.1563 24.9225 34.5218C25.8031 34.8873 26.7472 35.0755 27.7006 35.0755H47.9615C48.9214 35.084 49.8735 34.9023 50.7627 34.5408C51.652 34.1794 52.4608 33.6453 53.1426 32.9696C53.8243 32.2938 54.3654 31.4897 54.7347 30.6037C55.104 29.7176 55.2941 28.7672 55.294 27.8073C55.294 26.8556 55.1066 25.9133 54.7424 25.0341C54.3782 24.1549 53.8444 23.356 53.1715 22.6831C52.4986 22.0101 51.6997 21.4764 50.8205 21.1122C49.9413 20.748 48.999 20.5605 48.0473 20.5605H27.7006C25.7787 20.5605 23.9354 21.324 22.5764 22.6831C21.2174 24.0421 20.4539 25.8853 20.4539 27.8073Z" fill="#FFE000"/>
<path d="M48.1972 55.2933C52.1995 55.2933 55.4439 52.0488 55.4439 48.0466C55.4439 44.0443 52.1995 40.7998 48.1972 40.7998C44.1949 40.7998 40.9504 44.0443 40.9504 48.0466C40.9504 52.0488 44.1949 55.2933 48.1972 55.2933Z" fill="white"/>
<path d="M27.7006 55.2933C31.7029 55.2933 34.9474 52.0488 34.9474 48.0466C34.9474 44.0443 31.7029 40.7998 27.7006 40.7998C23.6983 40.7998 20.4539 44.0443 20.4539 48.0466C20.4539 52.0488 23.6983 55.2933 27.7006 55.2933Z" fill="white"/>
<path d="M7.24675 35.0541C11.249 35.0541 14.4935 31.8096 14.4935 27.8073C14.4935 23.805 11.249 20.5605 7.24675 20.5605C3.24448 20.5605 0 23.805 0 27.8073C0 31.8096 3.24448 35.0541 7.24675 35.0541Z" fill="white"/>
<path d="M27.7006 14.4935C31.7029 14.4935 34.9474 11.249 34.9474 7.24675C34.9474 3.24448 31.7029 0 27.7006 0C23.6983 0 20.4539 3.24448 20.4539 7.24675C20.4539 11.249 23.6983 14.4935 27.7006 14.4935Z" fill="white"/>
<path d="M48.1972 14.4935C52.1995 14.4935 55.4439 11.249 55.4439 7.24675C55.4439 3.24448 52.1995 0 48.1972 0C44.1949 0 40.9504 3.24448 40.9504 7.24675C40.9504 11.249 44.1949 14.4935 48.1972 14.4935Z" fill="white"/>
<path d="M7.24675 14.4935C11.249 14.4935 14.4935 11.249 14.4935 7.24675C14.4935 3.24448 11.249 0 7.24675 0C3.24448 0 0 3.24448 0 7.24675C0 11.249 3.24448 14.4935 7.24675 14.4935Z" fill="white"/>
<path d="M7.24675 55.2933C11.249 55.2933 14.4935 52.0488 14.4935 48.0466C14.4935 44.0443 11.249 40.7998 7.24675 40.7998C3.24448 40.7998 0 44.0443 0 48.0466C0 52.0488 3.24448 55.2933 7.24675 55.2933Z" fill="white"/>
</svg>
