<svg width="17" height="16" viewBox="0 0 17 16" fill="none" xmlns="http://www.w3.org/2000/svg">
<path d="M5.84546 8.09823C5.84546 6.69158 6.9871 5.55096 8.39576 5.55096C9.80442 5.55096 10.9467 6.69158 10.9467 8.09823C10.9467 9.50488 9.80442 10.6455 8.39576 10.6455C6.9871 10.6455 5.84546 9.50488 5.84546 8.09823ZM4.46649 8.09823C4.46649 10.2653 6.22562 12.0219 8.39576 12.0219C10.5659 12.0219 12.325 10.2653 12.325 8.09823C12.325 5.93119 10.5659 4.17457 8.39576 4.17457C6.22562 4.17457 4.46649 5.93119 4.46649 8.09823ZM11.5623 4.01899C11.5622 4.20035 11.616 4.37765 11.7169 4.52848C11.8177 4.67931 11.9611 4.7969 12.1288 4.86636C12.2966 4.93583 12.4812 4.95406 12.6594 4.91876C12.8375 4.88345 13.0011 4.79618 13.1296 4.66799C13.2581 4.53981 13.3456 4.37646 13.3811 4.19861C13.4166 4.02075 13.3985 3.83638 13.3291 3.6688C13.2596 3.50122 13.142 3.35797 12.991 3.25715C12.8401 3.15634 12.6626 3.10249 12.4809 3.10241H12.4806C12.2371 3.10253 12.0037 3.19912 11.8315 3.37098C11.6594 3.54283 11.5625 3.7759 11.5623 4.01899ZM5.30431 14.318C4.55826 14.2841 4.15276 14.16 3.88328 14.0551C3.52602 13.9162 3.27111 13.7508 3.0031 13.4836C2.7351 13.2163 2.5692 12.962 2.43073 12.6053C2.32568 12.3363 2.20141 11.9312 2.16749 11.1863C2.1304 10.3808 2.12299 10.1389 2.12299 8.09829C2.12299 6.05772 2.13101 5.81645 2.16749 5.01033C2.20147 4.26534 2.32666 3.86109 2.43073 3.59133C2.56981 3.23458 2.73546 2.98003 3.0031 2.71241C3.27074 2.44478 3.52541 2.27912 3.88328 2.14085C4.15263 2.03595 4.55826 1.91185 5.30431 1.87799C6.1109 1.84094 6.3532 1.83355 8.39576 1.83355C10.4383 1.83355 10.6809 1.84156 11.4881 1.87799C12.2342 1.91192 12.639 2.03693 12.9092 2.14085C13.2664 2.27912 13.5213 2.44515 13.7893 2.71241C14.0573 2.97967 14.2226 3.23458 14.3617 3.59133C14.4668 3.8603 14.591 4.26534 14.6249 5.01033C14.662 5.81645 14.6694 6.05772 14.6694 8.09829C14.6694 10.1389 14.662 10.3801 14.6249 11.1863C14.591 11.9312 14.4661 12.3362 14.3617 12.6053C14.2226 12.962 14.057 13.2166 13.7893 13.4836C13.5217 13.7506 13.2664 13.9162 12.9092 14.0551C12.6398 14.16 12.2342 14.2841 11.4881 14.318C10.6815 14.355 10.4392 14.3624 8.39576 14.3624C6.35228 14.3624 6.11065 14.355 5.30431 14.318ZM5.24095 0.503306C4.42633 0.540351 3.86969 0.669334 3.38357 0.858225C2.88012 1.05329 2.45393 1.31499 2.02804 1.73959C1.60216 2.1642 1.34076 2.59045 1.14542 3.09318C0.956258 3.57892 0.827091 4.13447 0.789993 4.94792C0.752284 5.76265 0.743652 6.02313 0.743652 8.09823C0.743652 10.1733 0.752284 10.4338 0.789993 11.2485C0.827091 12.0621 0.956258 12.6175 1.14542 13.1033C1.34076 13.6057 1.60222 14.0324 2.02804 14.4569C2.45387 14.8813 2.88012 15.1426 3.38357 15.3382C3.87061 15.5271 4.42633 15.6561 5.24095 15.6932C6.05727 15.7302 6.31769 15.7394 8.39576 15.7394C10.4738 15.7394 10.7347 15.7308 11.5506 15.6932C12.3652 15.6561 12.9215 15.5271 13.4079 15.3382C13.9111 15.1426 14.3376 14.8815 14.7635 14.4569C15.1894 14.0323 15.4502 13.6057 15.6461 13.1033C15.8353 12.6175 15.965 12.062 16.0015 11.2485C16.0386 10.4332 16.0472 10.1733 16.0472 8.09823C16.0472 6.02313 16.0386 5.76265 16.0015 4.94792C15.9644 4.1344 15.8353 3.57861 15.6461 3.09318C15.4502 2.59076 15.1887 2.16487 14.7635 1.73959C14.3383 1.31431 13.9111 1.05329 13.4086 0.858225C12.9215 0.669334 12.3652 0.53974 11.5512 0.503306C10.7353 0.466262 10.4744 0.457031 8.39637 0.457031C6.3183 0.457031 6.05727 0.465651 5.24095 0.503306Z" fill="white"/>
</svg>
