<svg width="17" height="17" viewBox="0 0 17 17" fill="none" xmlns="http://www.w3.org/2000/svg">
<g clip-path="url(#clip0_162_85)">
<path d="M16.018 10.207V16.0394H12.5957V10.5976C12.5957 9.23062 12.1007 8.29769 10.862 8.29769C9.91632 8.29769 9.35357 8.92642 9.106 9.5346C9.01572 9.75203 8.99248 10.0547 8.99248 10.359V16.0394H5.56904C5.56904 16.0394 5.61514 6.82286 5.56904 5.86796H8.99214V7.30971C8.9852 7.3205 8.97618 7.33212 8.96965 7.34258H8.99214V7.30971C9.44694 6.61765 10.2592 5.62901 12.0771 5.62901C14.3295 5.62897 16.018 7.08275 16.018 10.207ZM1.98797 0.964844C0.816814 0.964844 0.0507812 1.72381 0.0507812 2.72188C0.0507812 3.69819 0.794651 4.48019 1.94253 4.48019H1.9654C3.15924 4.48019 3.9017 3.69834 3.9017 2.72188C3.8792 1.72381 3.15924 0.964844 1.98797 0.964844ZM0.254104 16.0394H3.67625V5.86796H0.254104V16.0394Z" fill="white"/>
</g>
<defs>
<clipPath id="clip0_162_85">
<rect width="16" height="15.1111" fill="white" transform="translate(0.0507812 0.945312)"/>
</clipPath>
</defs>
</svg>
