<svg width="195" height="44" viewBox="0 0 195 44" fill="none" xmlns="http://www.w3.org/2000/svg">
<path fill-rule="evenodd" clip-rule="evenodd" d="M23.4252 7.85511C23.2587 7.06688 21.9146 5.25616 20.4084 5.25616C20.071 5.25616 19.8488 5.31314 19.6265 5.37202C21.0783 5.9374 22.1951 7.40116 22.5325 8.42175L23.3689 7.91335V7.85511H23.4252ZM32.922 42.1643L27.4956 38.4904C26.8428 38.0485 26.0837 37.2134 26.0837 35.6553V22.3503L25.5405 22.6859L25.3246 22.7973V36.0427C25.3246 37.157 25.9197 38.3251 26.732 38.8816L32.2167 42.6101L32.922 42.1643ZM9.48148 28.8182C9.58784 26.5612 9.11047 23.8078 8.6293 21.1639C8.14813 18.4668 7.71825 15.7127 7.7727 13.2936C7.82714 11.8083 8.09432 10.3768 8.68122 9.05486C7.66696 10.6503 7.02752 12.4661 6.97244 14.3939C6.81289 19.0739 9.00221 25.1823 8.78695 29.9205C8.74287 30.5634 8.69031 31.2056 8.6293 31.8471L8.7344 31.7356C9.16302 31.1291 9.42956 30.1953 9.48148 28.8182ZM17.0941 42.0846C16.2799 40.4448 14.3286 39.4445 12.0481 39.4445C11.8291 39.4951 11.6119 39.4951 11.396 39.4951C13.6221 39.8668 15.5201 41.0792 16.2273 42.6101L17.0941 42.0839V42.0846ZM36.7207 22.5086L34.8214 20.451L34.879 21.8217L35.8812 22.9834L36.7207 22.5086ZM88.7579 10.9542L84.2045 8.24637L84.8882 7.78863L89.2694 10.38C89.0985 10.5516 88.9275 10.7231 88.7579 10.9542ZM89.8405 42.6101L87.9715 41.2919C86.7433 40.415 86.1038 38.9335 86.1038 37.2887V18.9701C86.1038 16.4471 86.6388 14.6915 87.491 13.4867C87.0111 14.6915 86.7971 16.173 86.7971 17.8742L86.8496 36.629C86.8496 38.6588 87.4384 39.9757 88.8269 40.9627L90.5356 42.1719L89.8411 42.6101H89.8405ZM74.7077 42.4429C74.7077 42.4429 74.5317 42.5537 74.4152 42.6101H73.9467V11.9887C73.9467 10.5079 73.8296 10.5079 72.8919 9.84753L71.5421 8.85987L72.4241 8.42175C73.1268 8.96876 74.1829 9.73863 74.1829 9.79434C74.5931 10.1774 74.7077 10.3958 74.7077 11.2746V42.4967V42.4429ZM52.3251 4.62305C51.8579 5.84496 51.9161 7.01243 52.5011 7.96907C53.0304 8.81745 53.9655 9.40245 55.0811 9.66899C51.6236 9.933 50.1029 7.43852 52.3251 4.62305ZM60.4638 31.214C60.6886 30.3409 60.7804 29.3589 60.7804 28.3238V12.461C60.7804 10.5541 60.6886 10.3382 60.146 9.73863H60.2378C61.0052 9.57402 61.4123 9.73863 61.4123 11.3714V27.2886C61.4123 29.1424 61.1425 30.3415 60.4638 31.2146V31.214ZM61.8238 42.6107C61.3711 41.1127 60.0029 39.8459 57.6136 39.4996C57.9573 39.4445 58.2973 39.4445 58.6405 39.4445C61.5959 39.4989 62.4506 41.3413 62.6221 41.9181L62.6785 42.089L61.8238 42.6101V42.6107ZM143.084 42.2213L141.454 41.2254C139.983 40.3365 139.221 38.9551 139.221 36.85V21.8432C139.221 20.9581 139.169 21.0138 138.839 20.7359C138.839 20.7359 137.697 19.7938 136.935 19.1847L136.12 19.6311L137.697 20.8467C138.569 21.5095 138.461 21.5653 138.461 22.8954V37.4578C138.461 39.4514 139.276 40.8354 140.418 41.5034L142.377 42.6101L143.084 42.2213ZM127.89 42.4961V20.0116L127.039 19.1847L125.99 19.683L126.972 20.6213V42.6101H127.5C127.629 42.5531 127.826 42.4961 127.826 42.4961H127.89ZM110.162 42.2207L103.832 38.3669C102.565 37.5863 102.072 36.6385 102.072 34.9633V22.3503L101.521 22.6295L101.299 22.7403V35.5774C101.299 37.0848 101.958 38.1985 103.116 38.8715L109.444 42.6101L110.162 42.2207ZM113.328 35.0127V22.5054C113.328 21.847 113.119 21.6254 112.642 21.3532L110.162 19.8179V20.6409L111.587 21.4621C112.642 22.0648 112.642 22.1756 112.642 23.3298L112.591 34.5739L113.328 35.0127ZM163.344 12.4243V12.2629C163.344 10.7535 162.472 9.19225 161.133 8.38186C160.812 8.17922 160.488 7.98146 160.161 7.78863L159.545 8.22105L159.902 8.43378C161.647 9.46133 162.628 10.7535 162.628 12.8536L163.344 12.4243ZM183.604 42.1643L178.163 38.4904C177.518 38.0485 176.762 37.2134 176.762 35.6553V22.3503L176.223 22.6859L176.006 22.7973V35.8737C176.006 37.3223 176.548 38.3251 177.461 38.938L182.848 42.6101L183.604 42.1643ZM160.178 42.7956L154.366 38.9924C152.972 38.101 152.701 37.2602 152.701 35.6356V23.6166L152.27 23.8419L151.948 24.0078V35.9167C151.948 37.8212 152.541 38.66 153.454 39.2735L159.477 43.2432L160.178 42.7956ZM186.769 22.508L184.87 20.451L184.926 21.8217L185.93 22.9834L186.769 22.508ZM164.61 35.6458V17.9185L163.344 18.4237V35.1405L164.61 35.6458Z" fill="#8F98A9"/>
<path fill-rule="evenodd" clip-rule="evenodd" d="M24.8131 37.35L24.1534 36.0261L22.4465 37.1265C21.1797 35.5811 19.1372 33.7628 14.2856 33.7628C9.15614 33.7083 2.86739 37.7862 0 41.3158L0.496997 41.9774C4.41029 39.3848 8.43882 38.2307 11.9684 38.2307C14.8365 38.2307 17.2069 39.6083 18.1983 41.647L24.8131 37.35ZM30.111 7.13323C29.117 5.58969 26.4706 2.7242 21.2309 2.7242C14.946 2.67039 9.43344 7.57578 9.21185 13.5309C9.04471 18.2723 11.3068 24.3914 11.0846 29.1328C10.9763 30.7327 10.6427 31.89 9.98362 32.77L10.6427 33.5443L14.5047 30.7333C16.3813 29.3499 17.4278 27.643 17.3721 24.668C17.317 20.9732 15.6063 15.2947 15.6063 10.9408C15.6063 7.19021 17.0416 4.37854 20.2952 4.37854C22.5016 4.37854 24.2661 6.63876 24.5402 7.9069C24.6529 8.51152 24.5402 8.7882 23.9894 9.17376L22.4465 10.2247V11.9316L30.1117 7.1326L30.111 7.13323ZM44.3182 21.8L36.9284 13.6404L25.4007 20.3647V21.9083L27.7729 20.5876V35.8596C27.7729 36.7397 28.1047 37.2917 28.6549 37.6792L34.7771 41.647L43.4369 36.6282L42.7196 35.0847L38.1966 37.5108L34.1168 34.6979C33.6198 34.3699 33.5647 34.0382 33.5647 33.3208V28.3591L44.3182 21.8ZM38.5271 23.0131L33.5647 26.0995V18.0494L34.006 17.7753L38.5271 23.0131ZM63.5776 41.8103C63.023 40.2566 61.418 38.6523 58.5355 38.5422C55.8181 38.4864 51.9396 39.5406 48.7285 41.9774L48.1169 41.2006C50.4455 38.6523 55.8757 34.556 61.5807 34.4984C64.5754 34.4984 66.6799 35.4969 68.1759 37.1024L70.671 35.7172L71.3915 37.1588L63.5776 41.8103ZM97.764 7.85941C95.5994 9.13198 94.8789 10.8515 94.8789 13.51V34.7188C94.8789 36.0515 95.0473 36.6574 95.7665 37.0474L96.4876 37.4367L98.482 36.2693L99.148 37.6026L92.2204 41.7571L89.8399 40.1484C88.7832 39.4291 88.3388 38.5422 88.3388 36.8245V17.8842C88.3388 14.3413 89.4505 12.4552 91.0017 11.2947L91.8887 10.6299L85.3505 6.80654L82.4135 8.57737V36.1597C82.4135 38.4858 82.0811 38.8188 80.0279 39.8698C80.0279 39.8698 78.4255 40.6466 76.2127 41.8097H75.7676V11.2396C75.7676 9.74547 75.5992 9.41055 74.7679 8.74704L72.4431 6.86479L69.6163 8.46911V24.311C69.6163 27.0777 69.1731 29.072 66.9572 30.4554L61.4174 33.9451L60.8603 33.0049C62.5798 31.6735 62.9666 29.7887 62.9666 27.5747V11.4042C62.9666 9.02245 62.6374 8.08164 60.141 8.52482C59.2002 8.68943 57.7593 8.91165 56.8729 9.02245C53.2147 9.52198 51.6623 6.91797 54.1568 3.65109C54.1568 3.65109 54.7671 2.8198 56.3176 0.824219L57.5396 1.6574L56.65 2.9306C55.4876 4.59506 56.4291 5.48079 58.3151 4.81349C59.2002 4.48047 60.9172 3.81823 62.136 3.3168C67.3978 1.26993 69.339 4.64824 69.6163 6.64193L76.1557 2.71027L81.8031 7.02813L88.7832 2.71027L94.1597 5.75747C95.9869 6.80654 96.8738 6.36399 98.1489 5.69859L99.2025 5.14587L100.032 6.53177L97.764 7.85941ZM122.748 34.5991L122.252 33.393L120.325 34.3781V19.5189C120.325 18.7547 120.052 18.1495 119.28 17.7082L112.176 13.4872L100.666 20.1761V21.7677L103.036 20.397V34.9277C103.036 36.242 103.363 36.7378 104.193 37.2303L111.185 41.3443L122.748 34.5991ZM150.049 37.7248L149.499 36.463L147.459 37.6172L146.747 37.1765C145.976 36.7378 145.809 36.187 145.809 34.872V19.1359C145.809 17.8734 145.535 17.3277 144.762 16.7781L140.521 13.5967L133.968 17.3277L130.501 13.5967L123.562 17.8209L124.499 18.9149L126.865 17.4929L128.572 19.4106V41.2367H129.013C131.767 40.0255 132.647 39.6438 132.647 39.6438C133.969 39.0942 134.356 38.6561 134.356 37.1227V18.9143L136.615 17.5999L139.258 19.6848C139.971 20.2862 140.081 20.7801 140.081 21.7107L140.137 36.6282C140.137 38.2712 140.633 39.2044 141.732 39.8628L144.047 41.2367L150.049 37.7248ZM114.542 36.9036L114.214 36.9587L109.696 34.325C108.928 33.8862 108.759 33.393 108.759 32.4041L108.817 17.9836L109.145 17.8728L113.497 20.397C114.376 20.8909 114.542 21.3296 114.542 22.2603V36.9036ZM165.323 37.4874L164.991 37.5431L161.066 34.9891C160.295 34.4921 160.018 34.1027 160.018 33.1081V18.97L164.935 15.9722L165.323 16.195V37.4867V37.4874ZM173.501 35.2139L173.006 33.9381L171.014 34.9891V11.4846C171.014 8.04745 169.468 5.83154 166.926 4.27787L164.44 2.7242L156.645 7.26935L158.192 7.99173L160.738 6.60647L162.392 7.54792C164.162 8.54635 165.323 10.5445 165.323 12.5939V13.479L151.948 21.2403V22.7389L154.213 21.5189V35.602C154.213 36.8188 154.544 37.3202 155.318 37.8185L161.95 41.9774L173.501 35.2139ZM195 22.0184L187.537 13.8132L175.988 20.5749V22.1273L178.364 20.7991V36.1572C178.364 37.0423 178.695 37.5975 179.247 37.9869L185.384 41.9774L194.059 36.9302L193.398 35.3785L188.865 37.8185L184.775 34.9885C184.221 34.6023 184.167 34.3256 184.167 33.6051V28.6149L195 22.0184ZM189.142 23.2385L184.167 26.3426V18.247L184.666 17.9709L189.142 23.2385Z" fill="#1A171B"/>
</svg>
