<svg width="178" height="29" viewBox="0 0 178 29" fill="none" xmlns="http://www.w3.org/2000/svg">
<g clip-path="url(#clip0_2_238)">
<path d="M15.8178 1.75762L19.2532 8.66968C19.4553 9.07385 19.8594 9.35644 20.3047 9.43695L27.9018 10.5689C29.0732 10.73 29.5185 12.1446 28.6691 12.9939L23.1732 18.3286C22.8496 18.6522 22.6885 19.1369 22.7691 19.5821L24.0621 27.1396C24.2641 28.3111 23.0516 29.1605 22.0002 28.6347L15.2097 25.0383C14.8056 24.8362 14.3209 24.8362 13.8757 25.0383L7.08526 28.6347C6.03378 29.1605 4.82128 28.3111 5.02336 27.1396L6.35901 19.5821C6.43953 19.1369 6.27849 18.6522 5.95484 18.3286L0.458978 12.9543C-0.390419 12.146 0.0958586 10.7314 1.22625 10.5293L8.825 9.43841C9.27023 9.35789 9.6744 9.07529 9.87648 8.67114L13.2708 1.75907C13.7966 0.747077 15.3312 0.747077 15.8174 1.75749L15.8178 1.75762Z" fill="#FFE000"/>
</g>
<g clip-path="url(#clip1_2_238)">
<path d="M53.0012 1.75774L56.4367 8.66981C56.6388 9.07397 57.0429 9.35657 57.4882 9.43708L65.0853 10.5691C66.2567 10.7301 66.702 12.1447 65.8526 12.9941L60.3567 18.3287C60.033 18.6523 59.872 19.137 59.9525 19.5822L61.2455 27.1398C61.4476 28.3112 60.2351 29.1606 59.1836 28.6349L52.3932 25.0384C51.9891 24.8363 51.5044 24.8363 51.0591 25.0384L44.2687 28.6349C43.2172 29.1606 42.0047 28.3112 42.2068 27.1398L43.5425 19.5822C43.623 19.137 43.462 18.6523 43.1383 18.3287L37.6425 12.9545C36.7931 12.1461 37.2793 10.7315 38.4097 10.5295L46.0085 9.43853C46.4537 9.35801 46.8579 9.07541 47.06 8.67126L50.4543 1.75919C50.98 0.747199 52.5146 0.747199 53.0009 1.75761L53.0012 1.75774Z" fill="#FFE000"/>
</g>
<g clip-path="url(#clip2_2_238)">
<path d="M90.1846 1.75774L93.62 8.66981C93.8221 9.07397 94.2263 9.35657 94.6715 9.43708L102.269 10.5691C103.44 10.7301 103.885 12.1447 103.036 12.9941L97.54 18.3287C97.2164 18.6523 97.0554 19.137 97.1359 19.5822L98.4289 27.1398C98.631 28.3112 97.4185 29.1606 96.367 28.6349L89.5766 25.0384C89.1724 24.8363 88.6877 24.8363 88.2425 25.0384L81.4521 28.6349C80.4006 29.1606 79.1881 28.3112 79.3902 27.1398L80.7258 19.5822C80.8064 19.137 80.6453 18.6523 80.3217 18.3287L74.8258 12.9545C73.9764 12.1461 74.4627 10.7315 75.5931 10.5295L83.1918 9.43853C83.637 9.35801 84.0412 9.07541 84.2433 8.67126L87.6377 1.75919C88.1634 0.747199 89.698 0.747199 90.1842 1.75761L90.1846 1.75774Z" fill="#FFE000"/>
</g>
<g clip-path="url(#clip3_2_238)">
<path d="M127.368 1.75774L130.803 8.66981C131.005 9.07397 131.41 9.35657 131.855 9.43708L139.452 10.5691C140.623 10.7301 141.069 12.1447 140.219 12.9941L134.723 18.3287C134.4 18.6523 134.239 19.137 134.319 19.5822L135.612 27.1398C135.814 28.3112 134.602 29.1606 133.55 28.6349L126.76 25.0384C126.356 24.8363 125.871 24.8363 125.426 25.0384L118.635 28.6349C117.584 29.1606 116.371 28.3112 116.574 27.1398L117.909 19.5822C117.99 19.137 117.829 18.6523 117.505 18.3287L112.009 12.9545C111.16 12.1461 111.646 10.7315 112.776 10.5295L120.375 9.43853C120.82 9.35801 121.225 9.07541 121.427 8.67126L124.821 1.75919C125.347 0.747199 126.881 0.747199 127.368 1.75761L127.368 1.75774Z" fill="#FFE000"/>
</g>
<g clip-path="url(#clip4_2_238)">
<path d="M164.355 1.75774L167.79 8.66981C167.992 9.07397 168.397 9.35657 168.842 9.43708L176.439 10.5691C177.61 10.7301 178.056 12.1447 177.206 12.9941L171.71 18.3287C171.387 18.6523 171.226 19.137 171.306 19.5822L172.599 27.1398C172.801 28.3112 171.589 29.1606 170.537 28.6349L163.747 25.0384C163.343 24.8363 162.858 24.8363 162.413 25.0384L155.622 28.6349C154.571 29.1606 153.358 28.3112 153.56 27.1398L154.896 19.5822C154.977 19.137 154.816 18.6523 154.492 18.3287L148.996 12.9545C148.147 12.1461 148.633 10.7315 149.763 10.5295L157.362 9.43853C157.807 9.35801 158.212 9.07541 158.414 8.67126L161.808 1.75919C162.334 0.747199 163.868 0.747199 164.355 1.75761L164.355 1.75774Z" fill="#FFE000"/>
</g>
<defs>
<clipPath id="clip0_2_238">
<rect width="29.1" height="28.2917" fill="white" transform="translate(0.0141602 0.586548)"/>
</clipPath>
<clipPath id="clip1_2_238">
<rect width="29.1" height="28.2917" fill="white" transform="translate(37.1975 0.58667)"/>
</clipPath>
<clipPath id="clip2_2_238">
<rect width="29.1" height="28.2917" fill="white" transform="translate(74.3809 0.58667)"/>
</clipPath>
<clipPath id="clip3_2_238">
<rect width="29.1" height="28.2917" fill="white" transform="translate(111.564 0.58667)"/>
</clipPath>
<clipPath id="clip4_2_238">
<rect width="29.1" height="28.2917" fill="white" transform="translate(148.551 0.58667)"/>
</clipPath>
</defs>
</svg>
