<svg width="300" height="56" viewBox="0 0 300 56" fill="none" xmlns="http://www.w3.org/2000/svg">
<path d="M94.1977 32.7772C94.5385 32.2234 94.2829 31.5844 93.8143 31.2436L91.7268 29.6247C91.0026 29.0709 90.4062 29.3265 89.9376 29.8803C88.5743 31.5418 87.2537 32.5216 85.0384 32.5216C81.8433 32.5216 79.5428 29.9655 79.5428 26.7704C79.5428 23.5753 81.8433 21.0192 85.0384 21.0192C87.2537 21.0192 88.5743 21.999 89.9376 23.6605C90.4062 24.2143 91.0026 24.4699 91.7268 23.9161L93.8143 22.2972C94.2829 21.9564 94.5385 21.3174 94.1977 20.7636C92.4937 17.9093 89.2133 15.907 84.9532 15.907C78.8186 15.907 74.0046 20.6358 74.0046 26.7704C74.0046 32.905 78.8186 37.6338 84.9532 37.6338C89.2133 37.6338 92.4937 35.6315 94.1977 32.7772ZM95.8868 26.813C95.8868 32.905 100.786 37.6338 106.921 37.6338C113.055 37.6338 117.954 32.905 117.954 26.813C117.954 20.6358 113.055 15.907 106.921 15.907C100.786 15.907 95.8868 20.6358 95.8868 26.813ZM101.425 26.7704C101.425 23.5753 103.768 21.0192 106.921 21.0192C110.116 21.0192 112.416 23.5753 112.416 26.7704C112.416 29.9655 110.116 32.5216 106.921 32.5216C103.768 32.5216 101.425 29.9655 101.425 26.7704ZM126.494 25.9184C126.494 23.1493 128.113 20.9766 131.138 20.9766C134.162 20.9766 135.525 23.1493 135.525 25.9184V36.2279C135.525 36.6965 135.951 37.0374 136.42 37.0374H140.126C140.595 37.0374 141.021 36.6965 141.021 36.2279V25.9184C141.021 23.1493 142.597 20.9766 145.622 20.9766C148.647 20.9766 150.01 23.1493 150.01 25.9184V36.2279C150.01 36.6965 150.436 37.0374 150.905 37.0374H154.611C155.08 37.0374 155.506 36.6965 155.506 36.2279V24.5977C155.506 20.1246 152.694 15.907 146.73 15.907C144.046 15.907 141.362 16.9295 139.445 19.5281C138.295 17.3555 135.951 15.907 132.884 15.907C130.115 15.907 127.687 17.2277 126.494 18.9317V17.3129C126.494 16.8443 126.068 16.5034 125.599 16.5034H121.85C121.382 16.5034 120.998 16.8869 120.998 17.3981V36.1853C120.998 36.6539 121.382 37.0374 121.85 37.0374H125.599C126.068 37.0374 126.494 36.6965 126.494 36.2279V25.9184ZM164.851 26.7704C164.851 23.5753 167.237 21.0192 170.389 21.0192C173.584 21.0192 175.885 23.5753 175.885 26.7704C175.885 30.0081 173.584 32.5642 170.389 32.5642C167.237 32.5642 164.851 30.0081 164.851 26.7704ZM164.808 17.3981C164.808 16.8869 164.425 16.5034 163.956 16.5034H160.25C159.781 16.5034 159.398 16.8869 159.398 17.3981V45.3446C159.398 45.8133 159.781 46.1967 160.25 46.1967H164.041C164.51 46.1967 164.894 45.8133 164.894 45.3446V34.7369C166.129 36.6113 168.685 37.6338 171.199 37.6338C176.652 37.6338 181.423 33.3736 181.423 26.7278C181.423 20.1246 176.694 15.907 171.284 15.907C168.344 15.907 166.001 17.1851 164.808 19.0169V17.3981ZM186.068 30.9879C186.068 35.5889 189.518 37.4634 192.884 37.4634C195.27 37.4634 197.357 36.7391 198.678 35.4185C199.104 34.9925 199.146 34.5239 198.806 34.0126L197.528 31.9252C197.144 31.3714 196.505 31.3714 195.866 31.7548C195.142 32.2234 194.418 32.3938 193.906 32.3938C192.927 32.3938 191.563 31.7974 191.563 29.7525V21.1044H197.528C197.996 21.1044 198.422 20.6784 198.422 20.2098V17.3981C198.422 16.8869 197.996 16.5034 197.528 16.5034H191.563V10.7948C191.563 10.2836 191.18 9.90022 190.711 9.90022H186.962C186.451 9.90022 186.068 10.2836 186.068 10.7948V16.5034H183.256C182.787 16.5034 182.404 16.8869 182.404 17.3981V20.2098C182.404 20.6784 182.787 21.1044 183.256 21.1044H186.068V30.9879ZM205.35 26.7704C205.35 23.5753 207.736 21.0192 210.888 21.0192C214.084 21.0192 216.384 23.5753 216.384 26.7704C216.384 30.0081 214.084 32.5642 210.888 32.5642C207.736 32.5642 205.35 30.0081 205.35 26.7704ZM199.812 26.7278C199.812 33.3736 204.754 37.6338 210.079 37.6338C212.976 37.6338 215.319 36.3557 216.384 34.5239V36.1853C216.384 36.6539 216.767 37.0374 217.236 37.0374H220.985C221.454 37.0374 221.837 36.6539 221.837 36.1853V17.3981C221.837 16.8869 221.454 16.5034 220.985 16.5034H217.236C216.767 16.5034 216.384 16.8869 216.384 17.3981V19.0169C215.362 17.1851 213.019 15.907 210.122 15.907C204.711 15.907 199.812 20.1246 199.812 26.7278ZM233.93 15.907C228.648 15.907 225.239 18.7613 225.239 22.4677C225.239 25.8332 227.412 27.878 230.778 28.5597L234.058 29.2413C236.231 29.7099 237.338 30.0933 237.338 31.2862C237.338 32.3512 236.273 33.331 234.058 33.331C231.885 33.331 230.181 32.3938 228.818 31.201C228.307 30.7323 227.71 30.4341 226.901 31.0731L225.325 32.3512C224.473 33.0328 224.387 34.0126 225.964 35.2055C227.625 36.4409 230.224 37.6338 233.802 37.6338C239.255 37.6338 242.962 34.7369 242.962 30.7749C242.962 27.0686 240.32 25.3219 236.699 24.6403L233.334 24.0013C231.459 23.6605 230.735 23.0215 230.735 22.0416C230.735 21.0618 231.928 20.2098 233.802 20.2098C235.634 20.2098 237.338 20.9766 238.659 21.9564C239.468 22.425 240.107 22.3824 240.576 21.8286L241.939 20.2098C242.408 19.656 242.536 19.0169 241.897 18.5057C240.576 17.3555 237.85 15.907 233.93 15.907ZM247.599 30.9879C247.599 35.5889 251.049 37.4634 254.415 37.4634C256.801 37.4634 258.888 36.7391 260.209 35.4185C260.635 34.9925 260.677 34.5239 260.336 34.0126L259.058 31.9252C258.675 31.3714 258.036 31.3714 257.397 31.7548C256.673 32.2234 255.948 32.3938 255.437 32.3938C254.457 32.3938 253.094 31.7974 253.094 29.7525V21.1044H259.058C259.527 21.1044 259.953 20.6784 259.953 20.2098V17.3981C259.953 16.8869 259.527 16.5034 259.058 16.5034H253.094V10.7948C253.094 10.2836 252.711 9.90022 252.242 9.90022H248.493C247.982 9.90022 247.599 10.2836 247.599 10.7948V16.5034H244.787C244.318 16.5034 243.935 16.8869 243.935 17.3981V20.2098C243.935 20.6784 244.318 21.1044 244.787 21.1044H247.599V30.9879ZM266.881 26.7704C266.881 23.5753 269.267 21.0192 272.419 21.0192C275.614 21.0192 277.915 23.5753 277.915 26.7704C277.915 30.0081 275.614 32.5642 272.419 32.5642C269.267 32.5642 266.881 30.0081 266.881 26.7704ZM261.343 26.7278C261.343 33.3736 266.285 37.6338 271.61 37.6338C274.507 37.6338 276.85 36.3557 277.915 34.5239V36.1853C277.915 36.6539 278.298 37.0374 278.767 37.0374H282.516C282.984 37.0374 283.368 36.6539 283.368 36.1853V17.3981C283.368 16.8869 282.984 16.5034 282.516 16.5034H278.767C278.298 16.5034 277.915 16.8869 277.915 17.3981V19.0169C276.892 17.1851 274.549 15.907 271.652 15.907C266.242 15.907 261.343 20.1246 261.343 26.7278ZM297.719 16.2478C295.546 16.2478 293.757 17.4407 292.692 19.2725V17.3129C292.692 16.8443 292.309 16.5034 291.84 16.5034H288.304C287.835 16.5034 287.452 16.8869 287.452 17.3981V36.1853C287.452 36.6539 287.835 37.0374 288.304 37.0374H292.053C292.522 37.0374 292.948 36.6965 292.948 36.2279V26.9834C292.948 23.4049 294.524 22.0416 297.25 22.0416H298.273C298.614 22.0416 299.295 21.8286 299.295 20.9766V17.3129C299.295 16.4608 298.784 16.2478 298.315 16.2478H297.719Z" fill="black"/>
<path d="M20.4539 27.8068C20.4511 28.7603 20.6364 29.7049 20.9993 30.5866C21.3623 31.4683 21.8956 32.2697 22.5688 32.9449C23.242 33.6201 24.0419 34.1558 24.9225 34.5213C25.8031 34.8869 26.7472 35.075 27.7006 35.075H47.9615C48.9214 35.0835 49.8735 34.9018 50.7627 34.5403C51.652 34.1789 52.4608 33.6448 53.1426 32.9691C53.8243 32.2933 54.3654 31.4892 54.7347 30.6032C55.104 29.7171 55.2941 28.7667 55.294 27.8068V27.8068C55.294 26.8552 55.1066 25.9128 54.7424 25.0336C54.3782 24.1544 53.8444 23.3555 53.1715 22.6826C52.4986 22.0097 51.6997 21.4759 50.8205 21.1117C49.9413 20.7475 48.999 20.5601 48.0473 20.5601H27.7006C25.7787 20.5601 23.9354 21.3236 22.5764 22.6826C21.2174 24.0416 20.4539 25.8849 20.4539 27.8068Z" fill="#FFE000"/>
<path d="M48.1972 55.2931C52.1995 55.2931 55.4439 52.0486 55.4439 48.0463C55.4439 44.044 52.1995 40.7996 48.1972 40.7996C44.1949 40.7996 40.9504 44.044 40.9504 48.0463C40.9504 52.0486 44.1949 55.2931 48.1972 55.2931Z" fill="black"/>
<path d="M27.7006 55.2931C31.7029 55.2931 34.9474 52.0486 34.9474 48.0463C34.9474 44.044 31.7029 40.7996 27.7006 40.7996C23.6983 40.7996 20.4539 44.044 20.4539 48.0463C20.4539 52.0486 23.6983 55.2931 27.7006 55.2931Z" fill="black"/>
<path d="M7.24675 35.0536C11.249 35.0536 14.4935 31.8091 14.4935 27.8068C14.4935 23.8045 11.249 20.5601 7.24675 20.5601C3.24448 20.5601 0 23.8045 0 27.8068C0 31.8091 3.24448 35.0536 7.24675 35.0536Z" fill="black"/>
<path d="M27.7006 14.4935C31.7029 14.4935 34.9474 11.249 34.9474 7.24675C34.9474 3.24448 31.7029 0 27.7006 0C23.6983 0 20.4539 3.24448 20.4539 7.24675C20.4539 11.249 23.6983 14.4935 27.7006 14.4935Z" fill="black"/>
<path d="M48.1972 14.4935C52.1995 14.4935 55.4439 11.249 55.4439 7.24675C55.4439 3.24448 52.1995 0 48.1972 0C44.1949 0 40.9504 3.24448 40.9504 7.24675C40.9504 11.249 44.1949 14.4935 48.1972 14.4935Z" fill="black"/>
<path d="M7.24675 14.4935C11.249 14.4935 14.4935 11.249 14.4935 7.24675C14.4935 3.24448 11.249 0 7.24675 0C3.24448 0 0 3.24448 0 7.24675C0 11.249 3.24448 14.4935 7.24675 14.4935Z" fill="black"/>
<path d="M7.24675 55.2931C11.249 55.2931 14.4935 52.0486 14.4935 48.0463C14.4935 44.044 11.249 40.7996 7.24675 40.7996C3.24448 40.7996 0 44.044 0 48.0463C0 52.0486 3.24448 55.2931 7.24675 55.2931Z" fill="black"/>
</svg>
